# xmcd
#
# Track frame offsets:
# 150
# 30392
# 43716
# 65365
# 78489
# 102038
# 112987
# 126136
# 150485
# 161246
# 177133
# 186469
# 204055
# 219967
# 228741
# 262440
# 290039
# 302638
# 316437
#
# Disc length: 4420 seconds
#
#
# Revision: 0
# Processed by: cddbd v1.5.1PL0 Copyright (c) Steve Scherf et al.
# Submitted via: FreeRIP 2.90 
#
DISCID=0c114213
DTITLE=Tom Waits - Downtown Blues 1974-75
DYEAR=1900
DGENRE=
TTITLE0=I Hope I don't Fall in Love with You
TTITLE1=San Diego Serenade
TTITLE2=Good Night
TTITLE3=Ice Cream Man
TTITLE4=Please Call Me Baby
TTITLE5=Better off without a Wife
TTITLE6=The Ghost of Saturday Night
TTITLE7=Big Joe and Phantom
TTITLE8=Truck Driving Man
TTITLE9=01'55''
TTITLE10=On a Foggy Night
TTITLE11=Martha
TTITLE12=Eggs and Sausages
TTITLE13=New Gat of Pain
TTITLE14=Night Hawk Postcards
TTITLE15=Looking for the Heart of Saturday Night
TTITLE16=Ice Cream Man (bis)
TTITLE17=San Diego Serenade (bis)
TTITLE18=01'55'' (bis)
EXTD=
EXTT0=
EXTT1=
EXTT2=
EXTT3=
EXTT4=
EXTT5=
EXTT6=
EXTT7=
EXTT8=
EXTT9=
EXTT10=
EXTT11=
EXTT12=
EXTT13=
EXTT14=
EXTT15=
EXTT16=
EXTT17=
EXTT18=
PLAYORDER=
